<?xml version="1.0" encoding="UTF-8" standalone="no"?>
<!DOCTYPE svg PUBLIC "-//W3C//DTD SVG 1.1//EN" "http://www.w3.org/Graphics/SVG/1.1/DTD/svg11.dtd">
<svg width="100%" height="100%" viewBox="0 0 391 391" version="1.1" xmlns="http://www.w3.org/2000/svg" xmlns:xlink="http://www.w3.org/1999/xlink" xml:space="preserve" xmlns:serif="http://www.serif.com/" style="fill-rule:evenodd;clip-rule:evenodd;stroke-linejoin:round;stroke-miterlimit:2;">
    <g id="path4" transform="matrix(1,0,0,1,30,30)">
        <path d="M24.219,296.891C24.219,292.047 20.531,275.828 13.188,248.203C7.078,225.781 4.031,210.719 4.031,203C4.031,185.063 14.438,163.813 35.25,139.234C36.313,137.984 37.484,136.641 38.75,135.203C34.078,134.313 28.609,130.547 22.328,123.906C7.438,108.484 0,86.422 0,57.719C0,42.297 4.563,28.578 13.719,16.547C19.625,8.672 25.547,4.719 31.484,4.719L32.563,4.719C33.453,4.719 33.984,6.344 34.172,9.563C34.516,15.484 35.5,21.406 37.125,27.313C42.141,47.219 64.375,73.594 103.844,106.406C123.031,122.375 136.844,132.609 145.281,137.078C146,137.453 146.438,137.625 146.625,137.625L174.875,98.344C172.906,98.344 167.078,94.313 157.391,86.234C138.547,70.641 129.141,57.453 129.141,46.688C129.141,36.656 133.531,26.609 142.328,16.547C150.031,7.578 157.563,3.094 164.922,3.094C167.25,3.094 168.422,4.359 168.422,6.859L168.156,11.438L168.156,14.672C168.156,24 175.234,33.5 189.406,43.188L225.453,65.781C243.922,79.969 253.438,94.313 253.984,108.828C253.984,125.703 246.984,140.594 232.984,153.5C225.094,160.859 218.547,164.531 213.359,164.531C212.641,164.531 211.563,160.859 210.125,153.5C209.219,148.297 208.234,143.359 207.156,138.703C203.938,123.813 197.125,113.141 186.719,106.688L185.109,105.609L158.203,148.109C159.984,148.109 166.719,152.156 178.375,160.219C208.859,181.219 230.469,204 243.219,228.563C250.391,242.563 253.984,256.453 253.984,270.266C253.984,304.172 248.141,323 236.484,326.766C234.516,327.297 232.266,327.563 229.766,327.563L226,327.563C225.813,327.563 225.188,324.25 224.109,317.609C220.875,293.766 209.578,274.297 190.219,259.234C166.359,241.484 125.188,208.031 66.719,158.875C53.984,148.297 47.344,143 46.813,143L40.094,148.375C31.125,157.172 26.641,166.953 26.641,177.703C26.641,189.188 34.078,203.625 48.969,221.031L76.141,251.688C89.766,268.375 96.594,283 96.594,295.547C96.594,307.578 89.859,316.625 76.406,322.719C79.453,321.281 75.516,322.906 64.578,327.563L1.078,327.563L5.375,319.766C5.734,319.594 6.547,319.5 7.797,319.5C14.422,318.969 18.828,317.078 20.984,313.844C23.141,310.625 24.219,304.969 24.219,296.891Z" style="fill:rgb(0,56,184);fill-rule:nonzero;"/>
    </g>
    <g transform="matrix(1.95801e-05,-1,1,1.95801e-05,97.0009,674.54)">
        <text x="313.393px" y="262.003px" style="font-family:'Kefa-Regular', 'Kefa';font-size:78px;fill:rgb(0,56,184);">Kabbalah</text>
    </g>
</svg>
